<svg width="77" height="75" viewBox="0 0 77 75" fill="none" xmlns="http://www.w3.org/2000/svg">
<path d="M33.0186 14.0334L36.4826 13.0949L41.3595 10.45L45.4433 9.27258V9.69833L41.3595 12.0923L37.1818 14.7679L34.5531 16.8802L32.7023 15.0292L33.0186 14.0334Z" fill="#353535" stroke="#353535" stroke-width="0.5"/>
<path d="M43.9053 10.1152L44.2805 9.99006L44.6172 9.86719L44.9175 9.73334L45.1328 9.59766L45.2422 9.44531L41.6464 9.78315L37.1388 12.5956L35.457 16.4727L36.328 16L37.1388 15.4424L37.448 14.9171L37.793 14.4896L38.2593 13.966L38.7175 13.5161L41.1222 11.4143L41.5643 11.0785L41.7904 10.9222L42.0647 10.7033L42.3933 10.5751L43.4432 10.2237L43.9053 10.1152Z" fill="#353535"/>
<path fill-rule="evenodd" clip-rule="evenodd" d="M58.8464 27.9192C59.8511 26.1042 60.423 24.0164 60.423 21.795C60.423 14.8008 54.7531 9.13085 47.7589 9.13085C40.7647 9.13085 35.0948 14.8008 35.0948 21.795C35.0948 28.7892 40.7647 34.4591 47.7589 34.4591C49.9803 34.4591 52.0682 33.8871 53.8832 32.8825L58.8464 27.9192Z" fill="#828282"/>
<path d="M4.61989 69.7623L3.11847 65.6183V60.4534L4.61989 54.3877L9.12418 49.9434L15.1299 47.5412L21.3758 46.0998L26.7209 47.2409L31.2252 49.9434L36.3901 44.7785H34.6484L32.7266 45.6193L31.5855 46.0998L27.5617 43.4573L23.1775 41.9558H16.6914L13.0879 42.3162L16.6914 40.5745H19.8143L20.5146 36.7491L22.1925 30.7959L25.4649 22.3434L27.9554 19.6543L33.9209 21.0172L38.8622 20.7237H41.5521L44.8908 21.4575L45.5145 20.7237L42.8362 19.3662L46.2483 18.238V16.7613L42.8362 17.8987L44.8908 14.8535L44.2692 14.0097L42.2492 16.7613L41.5521 14.5233L40.9267 15.1904V17.8987L38.8622 18.238H34.6484L31.5855 15.1904L32.7266 11.4547L34.6484 8.70198L36.896 6.8341L40.9267 5.85101L44.2692 3.88482L43.4827 1.82032L37.3876 0.640602L31.2252 1.82032L22.7154 7.36727L16.6914 14.0097L13.5308 20.7237L12.167 26.1364L11.6588 34.7454L9.12418 42.3162L7.20237 46.0998L2.29106 50.7785L0.423187 56.1855V62.379L1.70119 67.0978L4.61989 69.7623Z" fill="#353535" stroke="#353535" stroke-width="0.5"/>
<path d="M18.1911 47.8407L13.7861 55.0108L14.3867 58.8544L15.8881 61.557L19.8519 60.476L14.3867 65.8811L12.2246 62.2777L10.7832 56.5122V52.2482L10.2474 50.6471L15.4639 48.5859L18.1911 47.8407Z" fill="#353535" stroke="#353535" stroke-width="0.5"/>
<ellipse cx="37.3815" cy="2.32525" rx="0.861268" ry="1.03368" transform="rotate(-90 37.3815 2.32525)" fill="white"/>
<path d="M54.2804 35.518L74.2567 15.5417" stroke="#692C00" stroke-width="0.5" stroke-linecap="round"/>
<path d="M58.2068 34.4591L65.5378 27.1281" stroke="#692C00" stroke-width="0.5" stroke-linecap="round"/>
<path d="M5.01447 49.5365L8.83365 45.9148L12.7155 44.4428L17.3445 43.4441L16.6549 45.3977L11.7679 47.0233L7.45084 49.5365H5.01447Z" fill="#FFD900" stroke="#353535"/>
<path d="M2.57806 66.657L1.26111 63.7597L1.59035 60.4673L2.18298 63.2987L2.57806 66.657Z" fill="#FFD900"/>
<path d="M1.19519 58.0967L2.64385 51.5778H4.55345L1.19519 58.0967Z" fill="#FFD900"/>
<path d="M13.7688 37.8221L14.7961 33.5504L14.335 29.433L16.4451 30.3594L16.8879 33.5504L15.4673 37.8221H13.7688Z" fill="#FFD900" stroke="#353535" stroke-width="0.5"/>
<path d="M23.3171 9.24918L24.8055 11.9443L26.857 9.65144L28.9086 8.5251V6.23219L26.857 7.43899L24.8055 8.20329L23.3171 9.24918Z" fill="#FFD900" stroke="#353535"/>
<path d="M17.5127 32.1966L17.1217 29.3195L17.9597 27.3084L18.9373 24.8503L20.836 24.4669L19.9149 27.029L18.9373 29.4871L19.2445 31.1351L18.1551 34.1239L16.8982 34.4591L17.5127 32.1966Z" fill="#FFD900" stroke="#353535" stroke-width="0.6"/>
<path d="M18.6116 20.2998L17.5255 16.7197L18.8932 13.4613L23.1169 9.43868L24.364 10.8868L24.5651 12.9384L23.5594 15.1911L22.1068 16.7197L20.7436 19.1332L18.6116 20.2998Z" fill="#FFD900" stroke="#353535" stroke-width="2"/>
<path d="M15.3283 26.9151L16.0489 22.6761V19.7919L18.0224 21.5996L17.6287 24.3599L16.5299 27.4991L15.3283 26.9151Z" fill="#FFD900" stroke="#353535" stroke-width="0.5"/>
<path d="M19.1915 23.3181L19.8705 20.3289L21.3983 17.3406L23.319 16.2616L23.7464 18.1162L22.6256 20.3289L20.6573 23.7827L19.1915 23.3181Z" fill="#FFD900" stroke="#353535"/>
<path d="M24.1669 16.8044L25.7974 14.6406L27.6028 12.755L28.2506 10.5249L26.6765 10.4222L24.8136 12.1125L23.425 15.5185L24.1669 16.8044Z" fill="#FFD900" stroke="#353535" stroke-width="0.7"/>
<path d="M8.15253 74.3594L44.5658 37.9461L46.5154 39.8957L76.5768 9.83429" stroke="#692C00" stroke-width="0.5" stroke-linecap="round"/>
</svg>
